<svg width="23" height="21" viewBox="0 0 23 21" fill="none" xmlns="http://www.w3.org/2000/svg">
<path d="M0.50622 20.045C1.0529 20.5917 1.91088 20.5082 2.92074 20.0602L20.8855 12.0422C21.3714 11.8296 21.7662 11.6018 22.0244 11.3436C22.5179 10.8501 22.5103 10.2351 22.0168 9.7415C21.7586 9.48336 21.3714 9.24797 20.8855 9.03542L2.82202 0.979347C1.94127 0.584535 1.06048 0.478211 0.50622 1.03248C-0.192338 1.73103 0.103763 2.49792 0.612511 3.44699L3.475 8.79997C3.80149 9.4302 4.09001 9.68833 4.72024 9.71114L20.8322 10.2577C21.022 10.2654 21.1208 10.3945 21.1284 10.5388C21.1283 10.6906 21.0221 10.8121 20.8322 10.8196L4.72024 11.4271C4.12043 11.4499 3.83188 11.6777 3.47503 12.3382L0.665674 17.5469C0.12657 18.5416 -0.199919 19.3389 0.50622 20.045Z" fill="#52525B"/>
</svg>
