<svg width="28" height="28" viewBox="0 0 28 28" fill="none" xmlns="http://www.w3.org/2000/svg">
<path d="M14 4.92586L13.3852 4.30332C13.2187 4.46771 13.125 4.69192 13.125 4.92586C13.125 5.15981 13.2187 5.38401 13.3852 5.54841L14 4.92586ZM23.625 13.7407C23.625 14.2239 24.0168 14.6157 24.5 14.6157C24.9832 14.6157 25.375 14.2239 25.375 13.7407H23.625ZM2.625 13.7407C2.625 14.2239 3.01676 14.6157 3.5 14.6157C3.98325 14.6157 4.375 14.2239 4.375 13.7407H2.625ZM4.70654 19.0162C4.51964 18.5706 4.00687 18.3608 3.56123 18.5477C3.11558 18.7346 2.90583 19.2474 3.09272 19.693L4.70654 19.0162ZM17.2398 2.9558C17.5836 2.61621 17.5871 2.06221 17.2475 1.71838C16.9079 1.37456 16.354 1.37112 16.0102 1.7107L17.2398 2.9558ZM16.0102 8.14102C16.354 8.4806 16.9079 8.47717 17.2475 8.13334C17.5871 7.78953 17.5836 7.23551 17.2398 6.89593L16.0102 8.14102ZM10.8527 5.80186C11.3359 5.80037 11.7265 5.40743 11.725 4.92418C11.7235 4.44093 11.3306 4.05038 10.8473 4.05187L10.8527 5.80186ZM25.3592 16.8753C25.3722 16.3923 24.991 15.9901 24.5079 15.9772C24.0249 15.9642 23.6228 16.3454 23.6098 16.8285L25.3592 16.8753ZM15.8915 25.4814L16.4607 24.5317L14.9597 23.6322L14.3905 24.5819L15.8915 25.4814ZM11.5392 24.5317L12.1085 25.4814L13.6095 24.5819L13.0403 23.6322L11.5392 24.5317ZM14.3905 24.5819C14.3116 24.7134 14.1701 24.7916 14 24.7916C13.8298 24.7916 13.6884 24.7134 13.6095 24.5819L12.1085 25.4814C12.9555 26.895 15.0444 26.895 15.8915 25.4814L14.3905 24.5819ZM9.59394 21.6718C8.27555 21.6494 7.59829 21.5662 7.07223 21.351L6.4096 22.9706C7.27018 23.3227 8.2463 23.3992 9.56417 23.4216L9.59394 21.6718ZM3.09272 19.693C3.7162 21.1797 4.91056 22.3574 6.4096 22.9706L7.07223 21.351C5.99848 20.9117 5.14876 20.0707 4.70654 19.0162L3.09272 19.693ZM18.4358 23.4216C19.7536 23.3992 20.7298 23.3227 21.5904 22.9706L20.9278 21.351C20.4017 21.5662 19.7245 21.6494 18.406 21.6718L18.4358 23.4216ZM23.2934 19.0162C22.8513 20.0707 22.0016 20.9117 20.9278 21.351L21.5904 22.9706C23.0895 22.3574 24.2838 21.1797 24.9073 19.693L23.2934 19.0162ZM14 5.80086C15.7275 5.80086 17.3777 5.80125 18.753 5.89432C19.4391 5.94076 20.0355 6.00907 20.5242 6.1063C21.0251 6.20595 21.3521 6.32463 21.54 6.43841L22.4462 4.94127C22.003 4.67301 21.4448 4.50518 20.8657 4.38994C20.2743 4.2723 19.5958 4.19736 18.8712 4.14831C17.4246 4.05042 15.7096 4.05086 14 4.05086V5.80086ZM25.375 13.7407C25.375 12.0604 25.3759 10.7381 25.2743 9.6819C25.1713 8.61221 24.9567 7.72516 24.4699 6.94038L22.9829 7.86302C23.2695 8.32513 23.4418 8.9102 23.5324 9.84959C23.6241 10.8025 23.625 12.0261 23.625 13.7407H25.375ZM21.54 6.43841C22.129 6.7949 22.6232 7.28333 22.9829 7.86302L24.4699 6.94038C23.9638 6.12467 23.27 5.4399 22.4462 4.94127L21.54 6.43841ZM4.375 13.7407C4.375 12.0261 4.37595 10.8025 4.46768 9.84959C4.55811 8.9102 4.73044 8.32513 5.01716 7.86302L3.53012 6.94038C3.0432 7.72516 2.82871 8.61221 2.72573 9.6819C2.62406 10.7381 2.625 12.0604 2.625 13.7407H4.375ZM5.55381 4.94127C4.72997 5.4399 4.03625 6.12467 3.53012 6.94038L5.01716 7.86302C5.37682 7.28333 5.87096 6.7949 6.45995 6.43841L5.55381 4.94127ZM13.0403 23.6322C12.8281 23.278 12.6382 22.9593 12.4528 22.708C12.2563 22.4418 12.0276 22.1975 11.7088 22.0145L10.8371 23.5318C10.8729 23.5525 10.9318 23.5941 11.0447 23.7472C11.1687 23.9152 11.31 24.1491 11.5392 24.5317L13.0403 23.6322ZM9.56417 23.4216C10.0266 23.4294 10.3145 23.4352 10.5327 23.459C10.7351 23.4812 10.8036 23.5127 10.8371 23.5318L11.7088 22.0145C11.3877 21.83 11.0556 21.7558 10.723 21.7194C10.4061 21.6847 10.0243 21.6791 9.59394 21.6718L9.56417 23.4216ZM16.4607 24.5317C16.69 24.1491 16.8313 23.9152 16.9553 23.7472C17.0682 23.5941 17.1271 23.5525 17.1628 23.5318L16.2912 22.0145C15.9724 22.1975 15.7436 22.4418 15.5471 22.708C15.3617 22.9593 15.1719 23.278 14.9597 23.6322L16.4607 24.5317ZM18.406 21.6718C17.9756 21.6791 17.5938 21.6847 17.2769 21.7194C16.9443 21.7558 16.6123 21.83 16.2912 22.0145L17.1628 23.5318C17.1963 23.5127 17.2648 23.4812 17.4672 23.459C17.6855 23.4352 17.9733 23.4294 18.4358 23.4216L18.406 21.6718ZM14.6148 5.54841L17.2398 2.9558L16.0102 1.7107L13.3852 4.30332L14.6148 5.54841ZM13.3852 5.54841L16.0102 8.14102L17.2398 6.89593L14.6148 4.30332L13.3852 5.54841ZM10.8473 4.05187C8.23865 4.05986 6.91849 4.11532 5.55381 4.94127L6.45995 6.43841C7.34413 5.90327 8.16348 5.81009 10.8527 5.80186L10.8473 4.05187ZM23.6098 16.8285C23.58 17.9438 23.4907 18.5457 23.2934 19.0162L24.9073 19.693C25.2388 18.9024 25.3286 18.0199 25.3592 16.8753L23.6098 16.8285Z" fill="black"/>
</svg>
