<svg width="24" height="24" viewBox="0 0 24 24" fill="none" xmlns="http://www.w3.org/2000/svg">
<g clip-path="url(#clip0_45_1325)">
<path d="M19.875 6.26996C20.2187 6.46542 20.5041 6.74893 20.7018 7.09131C20.8995 7.4337 21.0025 7.82258 21 8.21796V15.502C21 16.311 20.557 17.057 19.842 17.45L13.092 21.72C12.7574 21.9037 12.3818 22 12 22C11.6182 22 11.2426 21.9037 10.908 21.72L4.158 17.45C3.80817 17.2588 3.51612 16.9771 3.31241 16.6344C3.1087 16.2917 3.0008 15.9006 3 15.502V8.21696C3 7.40796 3.443 6.66296 4.158 6.26996L10.908 2.28996C11.2525 2.09999 11.6396 2.00037 12.033 2.00037C12.4264 2.00037 12.8135 2.09999 13.158 2.28996L19.908 6.26996H19.875Z" stroke="black" stroke-width="2" stroke-linecap="round" stroke-linejoin="round"/>
<path d="M9 12C9 12.7956 9.31607 13.5587 9.87868 14.1213C10.4413 14.6839 11.2044 15 12 15C12.7956 15 13.5587 14.6839 14.1213 14.1213C14.6839 13.5587 15 12.7956 15 12C15 11.2044 14.6839 10.4413 14.1213 9.87868C13.5587 9.31607 12.7956 9 12 9C11.2044 9 10.4413 9.31607 9.87868 9.87868C9.31607 10.4413 9 11.2044 9 12Z" stroke="black" stroke-width="2" stroke-linecap="round" stroke-linejoin="round"/>
</g>
<defs>
<clipPath id="clip0_45_1325">
<rect width="24" height="24" fill="white"/>
</clipPath>
</defs>
</svg>
