<svg width="24" height="25" viewBox="0 0 24 25" fill="none" xmlns="http://www.w3.org/2000/svg">
<path d="M5.09575 6.4612C5.09575 5.0128 5.76702 3.62372 6.96189 2.59955C8.15676 1.57538 9.77735 1 11.4672 1C13.157 1 14.7775 1.57538 15.9724 2.59955C17.1673 3.62372 17.8386 5.0128 17.8386 6.4612V13.9879C17.8386 15.4363 17.1673 16.8253 15.9724 17.8495C14.7775 18.8737 13.157 19.4491 11.4672 19.4491C9.77735 19.4491 8.15676 18.8737 6.96189 17.8495C5.76702 16.8253 5.09575 15.4363 5.09575 13.9879V6.4612Z" stroke="white" stroke-width="2" stroke-linecap="round" stroke-linejoin="round"/>
<path d="M8.09622 9.54793C8.09622 9.54793 9.13653 8.75575 11.5422 8.80587C13.9478 8.85599 14.8388 9.54793 14.8388 9.54793" stroke="white" stroke-width="1.5" stroke-linecap="round"/>
<path d="M9.60066 11.6457C9.60066 11.6457 10.1767 11.207 11.5088 11.2348C12.8408 11.2625 13.3342 11.6457 13.3342 11.6457" stroke="white" stroke-linecap="round"/>
<path d="M1 12.6227C1 15.7609 1.69565 18.3155 3.744 20.5345C5.79235 22.7535 8.5705 24.0002 11.4673 24.0002C14.3641 24.0002 17.1423 22.7535 19.1906 20.5345C21.239 18.3155 22.3897 15.8084 22.3897 12.6227" stroke="white" stroke-width="2" stroke-linecap="round" stroke-linejoin="round"/>
</svg>
