<svg width="166" height="129" viewBox="0 0 166 129" fill="none" xmlns="http://www.w3.org/2000/svg">
<g filter="url(#filter0_d_45_9554)">
<path fill-rule="evenodd" clip-rule="evenodd" d="M51.2542 47.4885C40.6204 49.193 33.3817 59.1951 35.0862 69.8289C36.7907 80.4628 46.7928 87.7014 57.4266 85.997L83.8301 81.7649C88.6854 80.9866 93.629 82.4842 97.2362 85.8261L103.633 91.7521C104.109 92.1932 104.873 92.0708 105.187 91.5029L109.411 83.8746C111.793 79.5727 116.021 76.6051 120.876 75.8269L147.28 71.5947C157.914 69.8903 165.152 59.8881 163.448 49.2543C161.743 38.6205 151.741 31.3818 141.107 33.0863L51.2542 47.4885Z" fill="white"/>
</g>
<path d="M53.5056 72.6168C52.8513 72.7217 52.2369 72.6926 51.6625 72.5294C51.0881 72.3663 50.5834 72.1069 50.1483 71.7512C49.7117 71.3864 49.3745 70.9631 49.1366 70.4814L50.072 69.9486C50.4239 70.6106 50.8828 71.0853 51.4488 71.3727C52.0132 71.6508 52.6457 71.7338 53.3461 71.6215C53.7884 71.5506 54.1644 71.4195 54.474 71.228C54.7913 71.0259 55.0215 70.7811 55.1645 70.4935C55.3074 70.2059 55.3516 69.8916 55.2969 69.5507C55.2157 69.0438 55.0146 68.6743 54.6939 68.4421C54.3731 68.21 53.9428 68.0615 53.4031 67.9968L51.4621 67.7408C50.7001 67.6455 50.0811 67.3808 49.605 66.9467C49.1382 66.5111 48.8538 65.9753 48.7519 65.3394C48.6648 64.7957 48.7216 64.2951 48.9224 63.8375C49.1217 63.3708 49.4325 62.9807 49.8549 62.6672C50.2865 62.3523 50.7972 62.1475 51.387 62.053C52.0044 61.954 52.5758 61.9806 53.1012 62.1327C53.6343 62.2741 54.1009 62.5018 54.501 62.8157C54.901 63.1297 55.211 63.5007 55.4308 63.9286L54.5252 64.4708C54.2065 63.898 53.7871 63.4926 53.2669 63.2546C52.7559 63.0151 52.187 62.9456 51.5603 63.0461C51.1641 63.1096 50.825 63.2348 50.543 63.4218C50.2702 63.6073 50.0716 63.8424 49.9471 64.127C49.8226 64.4116 49.7884 64.729 49.8445 65.0792C49.9125 65.5032 50.1074 65.8642 50.4293 66.1623C50.7497 66.4513 51.1997 66.6344 51.7792 66.7116L53.488 66.934C54.3374 67.0436 55.0056 67.291 55.4927 67.6761C55.9798 68.0611 56.278 68.5947 56.3873 69.2766C56.4759 69.8296 56.4113 70.3409 56.1936 70.8106C55.9836 71.2696 55.6444 71.6596 55.1759 71.9804C54.7167 72.2998 54.1599 72.5119 53.5056 72.6168ZM60.6932 71.4647C60.2232 71.5401 59.7898 71.5197 59.3931 71.4037C58.995 71.2785 58.6648 71.0762 58.4026 70.7968C58.1404 70.5175 57.9768 70.1751 57.9118 69.7696C57.8498 69.3825 57.8766 69.019 57.9923 68.6791C58.1065 68.33 58.3209 68.0167 58.6357 67.7394C58.9504 67.4621 59.3723 67.2338 59.9012 67.0545L62.7266 66.1054L62.8773 67.0454L60.2941 67.9131C59.7743 68.091 59.4146 68.3235 59.2149 68.6107C59.0244 68.8965 58.9564 69.2099 59.0111 69.5508C59.0643 69.8826 59.2383 70.143 59.5333 70.332C59.8375 70.5196 60.1969 70.5801 60.6116 70.5137C61.1185 70.4324 61.5439 70.2555 61.8877 69.983C62.2301 69.7013 62.4778 69.3591 62.6306 68.9565C62.7835 68.5539 62.8238 68.1268 62.7514 67.6752L62.45 65.7952C62.3791 65.3529 62.1603 65.0193 61.7934 64.7945C61.4265 64.5698 60.9851 64.4987 60.469 64.5815C60.0174 64.6538 59.6396 64.8326 59.3355 65.1176C59.03 65.3934 58.8231 65.7244 58.7148 66.1104L57.6929 65.7496C57.7809 65.4141 57.9516 65.0937 58.2052 64.7884C58.4679 64.4816 58.781 64.2234 59.1445 64.0139C59.5064 63.7952 59.8947 63.6526 60.3094 63.5862C60.8532 63.499 61.3494 63.5282 61.7981 63.6737C62.2559 63.8177 62.6304 64.0602 62.9213 64.4011C63.22 64.7313 63.4085 65.1406 63.4868 65.629L64.3022 70.7161L63.2654 70.8823L63.0283 69.4032L63.2048 69.5309C63.1201 69.828 62.9579 70.1139 62.7184 70.3886C62.4866 70.6527 62.1975 70.8833 61.851 71.0807C61.5123 71.2673 61.1263 71.3953 60.6932 71.4647ZM67.0742 73.3911C66.9268 73.4147 66.7725 73.4253 66.6114 73.4228C66.461 73.428 66.3076 73.4147 66.1513 73.3831L65.9962 72.4154C66.0898 72.4099 66.2073 72.4052 66.3484 72.4015C66.5003 72.4055 66.65 72.3957 66.7974 72.3721C67.249 72.2997 67.5791 72.1475 67.7877 71.9156C67.9977 71.6929 68.1751 71.2958 68.3199 70.7244L68.6126 69.5431L68.7312 70.4599L64.3347 63.1111L65.4544 62.9316L69.0648 69.0028L68.7745 69.0493L70.2927 62.1561L71.44 61.9722L69.3915 70.8645C69.3017 71.2476 69.1674 71.6188 68.9887 71.9783C68.8193 72.3363 68.5795 72.6394 68.2696 72.8876C67.9611 73.145 67.5626 73.3128 67.0742 73.3911ZM77.1422 61.1859L76.9561 60.0247C76.8704 59.4902 76.9147 59.0294 77.0889 58.6422C77.2724 58.2536 77.5811 57.9678 78.0149 57.7849L78.0925 58.2687C77.8278 58.3867 77.6518 58.5567 77.5645 58.7787C77.4758 58.9914 77.4473 59.2559 77.479 59.5722L78.0043 59.488L78.2481 61.0086L77.1422 61.1859ZM75.0687 61.5182L74.8825 60.357C74.7969 59.8225 74.8412 59.3617 75.0154 58.9746C75.1989 58.586 75.5076 58.3002 75.9414 58.1172L76.0189 58.6011C75.7543 58.7191 75.5783 58.8891 75.491 59.111C75.4022 59.3238 75.3737 59.5883 75.4055 59.9046L75.9308 59.8204L76.1745 61.341L75.0687 61.5182ZM81.9997 67.8794L80.349 57.5809L81.9801 57.3194L82.7069 61.8536L87.476 61.0891L86.7493 56.555L88.3666 56.2958L90.0173 66.5943L88.4 66.8536L87.7087 62.5406L82.9396 63.305L83.6309 67.618L81.9997 67.8794ZM91.9993 66.2766L90.8006 58.7981L92.3627 58.5477L93.5614 66.0263L91.9993 66.2766ZM90.6366 57.7752L90.3486 55.9781L91.9106 55.7277L92.1987 57.5248L90.6366 57.7752ZM101.591 64.9094C100.946 65.0128 100.327 64.989 99.736 64.838C99.1432 64.6779 98.6193 64.4168 98.1643 64.0549C97.7093 63.6931 97.3453 63.2504 97.0724 62.727L98.3617 61.9249C98.7124 62.5209 99.1547 62.9509 99.6886 63.2151C100.222 63.4793 100.803 63.5611 101.429 63.4607C101.798 63.4016 102.112 63.2946 102.37 63.1397C102.628 62.9756 102.813 62.7757 102.927 62.5401C103.049 62.3031 103.088 62.0463 103.044 61.7698C102.984 61.392 102.83 61.1095 102.582 60.9222C102.335 60.735 101.993 60.6102 101.558 60.5476L99.5252 60.2496C98.7127 60.1341 98.0645 59.8646 97.5807 59.4411C97.0955 59.0085 96.7997 58.4604 96.6933 57.7969C96.6002 57.2163 96.6618 56.6865 96.8781 56.2076C97.0929 55.7194 97.4292 55.3111 97.8869 54.9825C98.3539 54.6524 98.9099 54.4357 99.555 54.3323C100.172 54.2333 100.752 54.2538 101.295 54.3937C101.836 54.5244 102.316 54.7499 102.736 55.0702C103.165 55.3889 103.503 55.7838 103.748 56.2549L102.489 57.0664C102.199 56.5552 101.814 56.1869 101.333 55.9614C100.862 55.7344 100.345 55.666 99.7833 55.7561C99.4423 55.8108 99.1524 55.9187 98.9135 56.0798C98.6732 56.2318 98.4971 56.4302 98.3851 56.675C98.2808 56.9091 98.2516 57.169 98.2974 57.4547C98.3505 57.7864 98.5038 58.0644 98.7571 58.2884C99.0104 58.5125 99.364 58.6543 99.8178 58.7139L101.706 58.9926C102.566 59.11 103.241 59.3704 103.731 59.774C104.219 60.1683 104.519 60.711 104.63 61.4022C104.722 61.9736 104.651 62.5048 104.417 62.9959C104.193 63.4855 103.84 63.9015 103.356 64.2437C102.87 64.5767 102.282 64.7986 101.591 64.9094ZM110.002 63.4761C109.219 63.6016 108.575 63.4779 108.071 63.105C107.567 62.7321 107.251 62.1447 107.122 61.343L106.542 57.7212L105.229 57.9317L105.003 56.5217L105.21 56.4885C105.56 56.4323 105.816 56.2874 105.977 56.0536C106.138 55.8199 106.19 55.5279 106.134 55.1777L106.041 54.5971L107.603 54.3467L107.878 56.0608L109.578 55.7883L109.804 57.1983L108.104 57.4708L108.673 61.0235C108.715 61.2815 108.792 61.4961 108.904 61.6671C109.015 61.8289 109.171 61.9457 109.372 62.0175C109.571 62.0801 109.818 62.0878 110.113 62.0405C110.186 62.0287 110.268 62.0108 110.359 61.9868C110.45 61.9628 110.536 61.9396 110.617 61.9171L110.832 63.258C110.706 63.2971 110.566 63.3384 110.413 63.382C110.259 63.4255 110.122 63.4569 110.002 63.4761ZM115.759 62.6384C115.013 62.758 114.322 62.6939 113.687 62.446C113.059 62.1873 112.537 61.789 112.12 61.2509C111.701 60.7036 111.433 60.0613 111.315 59.324C111.194 58.5683 111.248 57.8743 111.477 57.2421C111.716 56.6083 112.085 56.0812 112.585 55.6608C113.083 55.2312 113.683 54.9603 114.383 54.848C114.945 54.7579 115.463 54.7742 115.936 54.8968C116.41 55.0194 116.826 55.2268 117.185 55.5191C117.542 55.8021 117.834 56.1476 118.06 56.5556C118.295 56.9622 118.452 57.4097 118.53 57.8981C118.549 58.0179 118.565 58.1431 118.576 58.2736C118.588 58.4041 118.588 58.5268 118.578 58.6418L112.62 59.5968L112.421 58.3527L117.494 57.5395L116.839 58.2259C116.858 57.7596 116.762 57.3639 116.549 57.0388C116.344 56.703 116.069 56.4589 115.723 56.3064C115.385 56.1431 115.008 56.0948 114.594 56.1612C114.179 56.2277 113.827 56.3928 113.539 56.6564C113.249 56.9109 113.047 57.2457 112.934 57.6608C112.819 58.0667 112.824 58.5386 112.948 59.0764C112.983 59.5906 113.123 60.0219 113.368 60.3702C113.622 60.717 113.937 60.9691 114.312 61.1264C114.696 61.2822 115.109 61.3247 115.552 61.2538C116.003 61.1814 116.369 61.0187 116.65 60.7658C116.94 60.5113 117.152 60.2081 117.284 59.856L118.656 60.2742C118.564 60.648 118.385 61.0029 118.117 61.3388C117.858 61.664 117.524 61.9443 117.118 62.1796C116.719 62.4042 116.266 62.5571 115.759 62.6384ZM121.543 61.5413L120.57 55.4727L119.188 55.6943L118.962 54.2843L120.344 54.0627L120.282 53.6757C120.192 53.1135 120.232 52.625 120.401 52.2103C120.57 51.7863 120.84 51.4404 121.213 51.1727C121.596 50.9034 122.054 50.726 122.589 50.6403C122.69 50.6241 122.807 50.6148 122.939 50.6126C123.069 50.6011 123.177 50.598 123.263 50.6031L123.48 51.9578C123.404 51.9512 123.319 51.9553 123.227 51.97C123.133 51.9756 123.059 51.9828 123.004 51.9917C122.589 52.0581 122.273 52.2081 122.055 52.4415C121.836 52.6657 121.761 52.9944 121.83 53.4275L121.892 53.8145L123.606 53.5398L123.832 54.9498L122.118 55.2246L123.091 61.2931L121.543 61.5413ZM128.311 60.6265C127.804 60.7077 127.343 60.6918 126.928 60.5788C126.521 60.455 126.186 60.2535 125.924 59.9741C125.66 59.6855 125.494 59.3247 125.424 58.8915C125.359 58.486 125.388 58.108 125.512 57.7574C125.644 57.4053 125.882 57.0884 126.224 56.8066C126.567 56.5249 127.016 56.2921 127.573 56.1084L130.103 55.2633L130.3 56.4936L128.07 57.2623C127.667 57.4025 127.384 57.5849 127.222 57.8094C127.058 58.0248 126.999 58.2799 127.047 58.5748C127.092 58.8605 127.236 59.0785 127.477 59.2288C127.727 59.3685 128.022 59.411 128.363 59.3563C128.787 59.2884 129.141 59.1371 129.424 58.9026C129.717 58.6666 129.927 58.3825 130.053 58.0503C130.178 57.7089 130.21 57.3493 130.15 56.9714L129.842 55.0499C129.783 54.6813 129.597 54.404 129.283 54.2179C128.978 54.0211 128.599 53.9589 128.147 54.0313C127.733 54.0978 127.386 54.2667 127.108 54.5381C126.838 54.7988 126.657 55.1115 126.564 55.4761L125.16 55.0347C125.24 54.6439 125.414 54.2851 125.683 53.9584C125.95 53.6225 126.279 53.343 126.668 53.1199C127.067 52.8952 127.502 52.7453 127.972 52.6699C128.561 52.5754 129.1 52.6025 129.587 52.7513C130.083 52.8986 130.487 53.1505 130.8 53.5069C131.12 53.8526 131.321 54.2835 131.404 54.7996L132.21 59.8313L130.718 60.0706L130.5 58.7159L130.825 58.7064C130.699 59.0386 130.515 59.3375 130.274 59.6029C130.042 59.867 129.761 60.0869 129.43 60.2629C129.108 60.4373 128.735 60.5585 128.311 60.6265ZM134.037 59.5386L132.838 52.06L134.331 51.8207L134.566 53.286L134.355 53.1213C134.464 52.6218 134.702 52.2197 135.069 51.9151C135.435 51.6013 135.885 51.4015 136.42 51.3158C136.973 51.2272 137.48 51.2687 137.942 51.4404C138.405 51.6121 138.79 51.8906 139.097 52.2762C139.405 52.6617 139.603 53.1309 139.692 53.6838L140.465 58.5083L138.917 58.7564L138.21 54.3467C138.149 53.9689 138.029 53.662 137.85 53.4261C137.669 53.181 137.438 53.01 137.158 52.9132C136.885 52.8056 136.588 52.7777 136.265 52.8294C135.943 52.8811 135.664 53.0013 135.43 53.1901C135.203 53.3682 135.042 53.602 134.947 53.8914C134.851 54.1808 134.833 54.5099 134.892 54.8785L135.599 59.2882L134.037 59.5386ZM143.263 50.7578L143.185 50.274C143.45 50.1559 143.626 49.9905 143.715 49.7778C143.812 49.5544 143.84 49.2853 143.799 48.9705L143.273 49.0547L143.029 47.5341L144.135 47.3568L144.321 48.518C144.407 49.0525 144.363 49.5133 144.189 49.9004C144.014 50.2876 143.706 50.5733 143.263 50.7578ZM141.189 51.0902L141.112 50.6063C141.376 50.4883 141.553 50.3229 141.642 50.1102C141.738 49.8867 141.766 49.6176 141.725 49.3028L141.2 49.387L140.956 47.8664L142.062 47.6892L142.248 48.8503C142.334 49.3849 142.289 49.8457 142.115 50.2328C141.941 50.6199 141.632 50.9057 141.189 51.0902Z" fill="#1E1E1E"/>
<defs>
<filter id="filter0_d_45_9554" x="0.837524" y="0.837646" width="196.859" height="127.181" filterUnits="userSpaceOnUse" color-interpolation-filters="sRGB">
<feFlood flood-opacity="0" result="BackgroundImageFix"/>
<feColorMatrix in="SourceAlpha" type="matrix" values="0 0 0 0 0 0 0 0 0 0 0 0 0 0 0 0 0 0 127 0" result="hardAlpha"/>
<feOffset dy="2"/>
<feGaussianBlur stdDeviation="17"/>
<feComposite in2="hardAlpha" operator="out"/>
<feColorMatrix type="matrix" values="0 0 0 0 0 0 0 0 0 0 0 0 0 0 0 0 0 0 0.15 0"/>
<feBlend mode="normal" in2="BackgroundImageFix" result="effect1_dropShadow_45_9554"/>
<feBlend mode="normal" in="SourceGraphic" in2="effect1_dropShadow_45_9554" result="shape"/>
</filter>
</defs>
</svg>
