<svg width="24" height="24" viewBox="0 0 24 24" fill="none" xmlns="http://www.w3.org/2000/svg">
<g clip-path="url(#clip0_45_8898)">
<path d="M7 13.0001V5.00005C7 4.73484 6.89464 4.48048 6.70711 4.29295C6.51957 4.10541 6.26522 4.00005 6 4.00005H4C3.73478 4.00005 3.48043 4.10541 3.29289 4.29295C3.10536 4.48048 3 4.73484 3 5.00005V12.0001C3 12.2653 3.10536 12.5196 3.29289 12.7072C3.48043 12.8947 3.73478 13.0001 4 13.0001H7ZM7 13.0001C8.06087 13.0001 9.07828 13.4215 9.82843 14.1716C10.5786 14.9218 11 15.9392 11 17.0001V18.0001C11 18.5305 11.2107 19.0392 11.5858 19.4143C11.9609 19.7893 12.4696 20.0001 13 20.0001C13.5304 20.0001 14.0391 19.7893 14.4142 19.4143C14.7893 19.0392 15 18.5305 15 18.0001V13.0001H18C18.5304 13.0001 19.0391 12.7893 19.4142 12.4143C19.7893 12.0392 20 11.5305 20 11.0001L19 6.00005C18.8562 5.38658 18.5834 4.85981 18.2227 4.49909C17.8619 4.13837 17.4328 3.96323 17 4.00005H10C9.20435 4.00005 8.44129 4.31613 7.87868 4.87873C7.31607 5.44134 7 6.20441 7 7.00005" stroke="#71717A" stroke-width="1.5" stroke-linecap="round" stroke-linejoin="round"/>
</g>
<defs>
<clipPath id="clip0_45_8898">
<rect width="24" height="24" fill="white"/>
</clipPath>
</defs>
</svg>
